[img]http://img851.imageshack.us/img851/6860/itinkerr.jpg[/img]
[code]
Tinker Tailor Soldier Spy 2011 R5 DVDRip XviD AC3-26K

Imdb: 
http://www.imdb.com/title/tt1340800/

Plot:
In the bleak days of the Cold War, espionage veteran George Smiley is forced from semi-retirement to uncover a Soviet agent within MI6's echelons.

Sources:
LUMX1 FOR DVDR!!!

Notes:
VERY GOOD VIDEO AND AUDIO! ENJOY!!

Greetz:
Xtreme Encode|FYA|ILLUMANTI|CM8|RX|VISION|HDSCENE|NIGHTMAREZ|xTriLL|DTRG|CRYS|REMIXHD|BIDA|RX|REFILL| INSPiRAL|SIC
To all the people who have helped me :P you know who you are

Anything to offer email us @: 26k@hushmail.me

Video
ID                                       : 0
Format                                   : MPEG-4 Visual
Format profile                           : Advanced Simple@L5
Format settings, BVOP                    : 2
Format settings, QPel                    : No
Format settings, GMC                     : No warppoints
Format settings, Matrix                  : Default (H.263)
Muxing mode                              : Packed bitstream
Codec ID                                 : XVID
Codec ID/Hint                            : XviD
Duration                                 : 2h 2mn
Bit rate                                 : 953 Kbps
Width                                    : 720 pixels
Height                                   : 300 pixels
Display aspect ratio                     : 2.40:1
Frame rate                               : 25.000 fps
Color space                              : YUV
Chroma subsampling                       : 4:2:0
Bit depth                                : 8 bits
Scan type                                : Progressive
Compression mode                         : Lossy
Bits/(Pixel*Frame)                       : 0.176
Stream size                              : 832 MiB (71%)
Writing library                          : XviD 1.2.1 (UTC 2008-12-04)

Audio
ID                                       : 1
Format                                   : AC-3
Format/Info                              : Audio Coding 3
Mode extension                           : CM (complete main)
Codec ID                                 : 2000
Duration                                 : 2h 2mn
Bit rate mode                            : Constant
Bit rate                                 : 384 Kbps
Channel(s)                               : 6 channels
Channel positions                        : Front: L C R, Side: L R, LFE
Sampling rate                            : 48.0 KHz
Bit depth                                : 16 bits
Compression mode                         : Lossy
Stream size                              : 335 MiB (28%)
Alignment                                : Aligned on interleaves
Interleave, duration                     : 32 ms (0.80 video frame)
Interleave, preload duration             : 32 ms

[/code]
Screens:
[img]http://img13.imageshack.us/img13/3782/vlcsnap2012010617h10m41.png[/img]
[img]http://img713.imageshack.us/img713/1535/vlcsnap2012010617h11m08.png[/img]
[img]http://img21.imageshack.us/img21/5436/vlcsnap2012010617h11m25.png[/img]
[img]http://img3.imageshack.us/img3/3295/vlcsnap2012010617h11m41.png[/img]
[img]http://img819.imageshack.us/img819/9306/vlcsnap2012010617h11m49.png[/img]

[img]http://img851.imageshack.us/img851/5503/26ks.jpg[/img]#
Thank you smallz for banner!